#!OML:ASF F:\VICON\USERDATA\INSTALL\rory3\rory3.ASF
:FULLY-SPECIFIED
:DEGREES
4139
root -10.1668 15.3958 16.7706 -0.631999 1.81062 -719.211
lowerback 36.1943 0.123059 -2.08671
upperback 6.05735 -0.11509 3.63526
thorax -11.3749 0.0270833 5.07884
lowerneck -15.8251 3.284 1.24509
upperneck 15.444 5.89844 -9.10755
head 7.7071 2.02365 -2.53907
rclavicle 8.34896e-015 4.77083e-015
rhumerus 2.51858 17.9873 -83.1811
rradius 46.2261
rwrist 0.76649
rhand -15.8755 12.1129
rfingers 7.12502
rthumb 10.3203 -17.6139
lclavicle 8.34896e-015 4.77083e-015
lhumerus -14.7434 -10.9223 90.7076
lradius 41.5025
lwrist -4.34897
lhand 166.441 -133.918
lfingers 7.12502
lthumb -167.446 3135.69
rfemur -55.5984 -2.91474 21.9871
rtibia 71.3298
rfoot -9.22715 -12.2103
rtoes 7.35028
lfemur -20.6452 -2.50891 -13.2672
ltibia 88.0281
lfoot -1.99712 -11.9558
ltoes -13.5736
4140
root -10.2159 15.4502 17.0302 -0.630102 2.15666 -719.732
lowerback 35.6009 0.286831 -1.80207
upperback 6.50611 0.235534 3.94075
thorax -10.8106 0.164172 5.09289
lowerneck -16.9461 2.92918 0.504874
upperneck 15.92 5.51183 -8.36659
head 7.99717 1.82075 -2.21063
rclavicle -1.23246e-014 3.57812e-014
rhumerus 3.23357 16.998 -82.8462
rradius 46.196
rwrist 0.492653
rhand -15.9239 11.4072
rfingers 7.12502
rthumb 10.2736 -18.3219
lclavicle -1.23246e-014 3.57812e-014
lhumerus -15.5186 -10.8855 91.2965
lradius 42.3475
lwrist -3.54091
lhand 166.548 -133.329
lfingers 7.12502
lthumb -167.343 3136.27
rfemur -54.5254 -2.98445 22.7219
rtibia 71.6294
rfoot -10.4455 -12.8006
rtoes 6.54872
lfemur -22.8653 -1.89813 -13.0996
ltibia 88.5269
lfoot -2.56771 -12.2165
ltoes -10.5777
4141
root -10.265 15.5039 17.2716 -0.544787 2.73698 -719.99
lowerback 34.8792 0.381389 -1.55992
upperback 7.003 0.453555 4.08995
thorax -10.0081 0.239627 5.0217
lowerneck -17.8701 2.6071 0.190201
upperneck 16.1139 5.09817 -7.91187
head 8.18255 1.62161 -2.0527
rclavicle -1.43125e-014 1.11319e-014
rhumerus 3.95733 16.1756 -82.4145
rradius 46.4061
rwrist -0.945057
rhand -17.0601 10.9276
rfingers 7.12502
rthumb 9.17737 -18.8527
lclavicle -1.43125e-014 1.11319e-014
lhumerus -15.8297 -10.9599 91.5975
lradius 43.0275
lwrist -3.13904
lhand 167.121 -132.643
lfingers 7.12502
lthumb -166.79 3136.92
rfemur -53.6315 -3.28326 23.1374
rtibia 71.8627
rfoot -11.5837 -13.1918
rtoes 6.07472
lfemur -25.3095 -1.52632 -13.3386
ltibia 88.77
lfoot -4.49207 -12.1341
ltoes -14.5204
4142
root -10.3179 15.5646 17.5062 -0.536672 3.605 -720.311
lowerback 34.1823 0.37961 -1.27901
upperback 7.42308 0.571786 4.32753
thorax -9.29464 0.275289 5.06882
lowerneck -17.7974 2.32867 0.0766703
upperneck 15.4933 4.71226 -7.99894
head 7.94554 1.44632 -2.10721
rclavicle 1.15295e-014 3.4191e-014
rhumerus 4.45801 15.6394 -81.8198
rradius 46.695
rwrist -2.58394
rhand -18.4044 10.0266
rfingers 7.12502
rthumb 7.88001 -19.8066
lclavicle 1.15295e-014 3.4191e-014
lhumerus -16.3536 -11.2174 91.9939
lradius 43.7513
lwrist -2.52292
lhand 166.771 -132.44
lfingers 7.12502
lthumb -167.128 3137.14
rfemur -52.6236 -3.63534 23.5976
rtibia 71.9801
rfoot -12.5256 -13.7296
rtoes 5.29844
lfemur -27.7557 -1.53097 -13.5519
ltibia 88.717
lfoot -6.15002 -12.116
ltoes -16.6491
4143
root -10.3692 15.6297 17.75 -0.45277 4.54959 -720.638
lowerback 36.1716 0.345789 -0.6475
upperback 5.60072 0.848579 4.36829
thorax -12.1071 0.451208 4.7054
lowerneck -16.542 2.01888 0.0376733
upperneck 16.4111 4.29101 -7.74348
head 8.00193 1.27095 -2.07887
rclavicle 3.57812e-015 -7.15625e-015
rhumerus 1.54517 15.3957 -82.0606
rradius 47.1087
rwrist -4.73616
rhand -20.0613 9.39435
rfingers 7.12502
rthumb 6.28064 -20.4925
lclavicle 3.57812e-015 -7.15625e-015
lhumerus -20.1574 -11.523 92.9206
lradius 44.501
lwrist -1.93013
lhand 165.876 -132.674
lfingers 7.12502
lthumb -167.991 3136.96
rfemur -51.6773 -4.00175 24.0535
rtibia 72.0263
rfoot -13.2456 -14.4101
rtoes 4.54379
lfemur -30.1407 -1.66909 -13.8787
ltibia 88.3282
lfoot -7.83502 -12.1767
ltoes -18.4359
4144
root -10.4175 15.7094 18.0022 -0.545262 5.53565 -721.032
lowerback 35.5954 0.328956 -0.135981
upperback 5.99622 1.03001 4.56273
thorax -11.4547 0.509894 4.5548
lowerneck -16.9073 1.72665 -0.0296814
upperneck 16.1142 3.87558 -7.64857
head 7.94593 1.0808 -2.08191
rclavicle -1.55052e-014 -2.70347e-014
rhumerus 1.73921 14.2844 -81.5822
rradius 47.5493
rwrist -6.14336
rhand -21.6356 9.41101
rfingers 7.12502
rthumb 4.76067 -20.5155
lclavicle -1.55052e-014 -2.70347e-014
lhumerus -20.6454 -11.9733 93.2659
lradius 45.1299
lwrist -1.35548
lhand 165.938 -133.189
lfingers 7.12502
lthumb -167.93 3136.44
rfemur -50.4003 -4.37977 24.5662
rtibia 72.0137
rfoot -14.0068 -15.0676
rtoes 3.65956
lfemur -32.0805 -1.79684 -14.2551
ltibia 87.5367
lfoot -9.32625 -12.0878
ltoes -20.8079
4145
root -10.4592 15.7919 18.2529 -0.753491 6.42582 -721.76
lowerback 35.2715 0.239916 0.658133
upperback 6.22469 1.23391 4.8213
thorax -11.0819 0.578492 4.31877
lowerneck -16.9695 1.5178 0.100717
upperneck 15.84 3.54806 -7.70032
head 7.85447 0.935945 -2.15695
rclavicle 3.22031e-014 4.21423e-014
rhumerus 1.50662 13.2426 -81.149
rradius 48.2345
rwrist -7.14363
rhand -22.4633 9.2706
rfingers 7.12502
rthumb 3.96138 -20.6723
lclavicle 3.22031e-014 4.21423e-014
lhumerus -21.3812 -12.2831 93.6682
lradius 45.6563
lwrist -0.752791
lhand 165.773 -134.045
lfingers 7.12502
lthumb -168.089 3135.6
rfemur -49.0075 -4.67619 25.4101
rtibia 71.9996
rfoot -14.8361 -15.622
rtoes 3.10747
lfemur -33.8056 -1.93833 -14.3227
ltibia 86.49
lfoot -10.9211 -11.8751
ltoes -22.1922
4146
root -10.5014 15.8688 18.493 -0.907564 7.33046 -722.106
lowerback 35.4382 0.201725 1.09035
upperback 6.08711 1.38237 4.95848
thorax -11.3044 0.638756 4.17669
lowerneck -16.9856 1.16263 -0.321017
upperneck 16.0228 3.0739 -7.1424
head 7.88031 0.734687 -1.95911
rclavicle 7.15625e-015 -2.94201e-014
rhumerus 0.784691 12.287 -80.8199
rradius 49.0104
rwrist -7.92882
rhand -22.5554 8.88335
rfingers 7.12502
rthumb 3.87241 -21.0612
lclavicle 7.15625e-015 -2.94201e-014
lhumerus -22.5214 -12.6174 94.0117
lradius 46.1041
lwrist -0.0255663
lhand 166.096 -133.57
lfingers 7.12502
lthumb -167.778 3136.05
rfemur -47.9055 -4.8444 25.8008
rtibia 72.1927
rfoot -15.36 -16.0424
rtoes 1.27572
lfemur -35.452 -2.16829 -14.9199
ltibia 85.1334
lfoot -12.9176 -11.1764
ltoes -24.5401
4147
root -10.5471 15.9452 18.7315 -0.973161 8.21216 -722.322
lowerback 35.924 0.273805 1.44488
upperback 5.52951 1.67158 5.04292
thorax -12.1325 0.766033 3.96745
lowerneck -15.8166 0.767323 -0.175688
upperneck 15.7627 2.48681 -7.3363
head 7.56998 0.478604 -2.11045
rclavicle 2.3059e-014 3.97569e-015
rhumerus -0.6569 10.993 -80.592
rradius 49.766
rwrist -8.29452
rhand -22.4674 8.3929
rfingers 7.12502
rthumb 3.95744 -21.5501
lclavicle 2.3059e-014 3.97569e-015
lhumerus -24.3395 -12.9572 94.5145
lradius 46.4227
lwrist 0.268051
lhand 167.038 -133.225
lfingers 7.12502
lthumb -166.871 3136.34
rfemur -47.1213 -5.16451 26.077
rtibia 72.5604
rfoot -15.2271 -15.9967
rtoes -0.806305
lfemur -37.0644 -2.41592 -15.6388
ltibia 83.483
lfoot -14.2709 -10.7367
ltoes -26.2286
4148
root -10.5814 16.0459 18.9708 -1.14538 9.03759 -722.363
lowerback 35.7801 0.318145 1.55406
upperback 5.61986 1.78193 5.15984
thorax -11.9853 0.815919 3.98761
lowerneck -15.2834 0.480162 0.0142919
upperneck 15.3384 2.07163 -7.68167
head 7.32657 0.2833 -2.29451
rclavicle -5.56597e-015 3.73715e-014
rhumerus -1.12826 9.64739 -80.1984
rradius 50.3638
rwrist -8.11641
rhand -22.125 8.5087
rfingers 7.12502
rthumb 4.28804 -21.4279
lclavicle -5.56597e-015 3.73715e-014
lhumerus -25.1941 -13.2031 94.7556
lradius 46.6795
lwrist 0.81543
lhand 166.681 -133.584
lfingers 7.12502
lthumb -167.214 3136
rfemur -46.2141 -5.40293 25.9502
rtibia 73.0354
rfoot -14.3633 -15.6196
rtoes 1.11855
lfemur -38.2613 -2.796 -16.6349
ltibia 81.4457
lfoot -14.7225 -10.4362
ltoes -26.08
4149
root -10.6036 16.166 19.2251 -1.30301 9.85665 -722.224
lowerback 35.6386 0.336895 1.61199
upperback 5.65687 1.83175 5.19604
thorax -11.8928 0.840233 3.97378
lowerneck -14.882 0.235828 0.106037
upperneck 15.0173 1.72367 -7.89319
head 7.13956 0.121018 -2.40983
rclavicle 2.62396e-014 3.02153e-014
rhumerus -1.66158 8.22321 -79.8605
rradius 50.9016
rwrist -7.84486
rhand -21.5831 8.453
rfingers 7.12502
rthumb 4.81133 -21.4724
lclavicle 2.62396e-014 3.02153e-014
lhumerus -26.0644 -13.2776 94.9773
lradius 46.7545
lwrist 1.3571
lhand 166.435 -133.996
lfingers 7.12502
lthumb -167.451 3135.61
rfemur -45.3572 -5.92667 25.5432
rtibia 73.6417
rfoot -11.9725 -15.7418
rtoes 2.57691
lfemur -38.9952 -3.18273 -17.8847
ltibia 79.0313
lfoot -15.3245 -10.2205
ltoes -24.3061
